<svg width="22" height="20" viewBox="0 0 22 20" fill="none" xmlns="http://www.w3.org/2000/svg">
<path d="M21.54 2.33572V15.1338C21.54 16.1778 20.6896 17.1358 19.6456 17.265L19.3119 17.308C17.5466 17.5448 15.0602 18.2768 13.0582 19.1163C12.3585 19.4069 11.5836 18.8795 11.5836 18.1153V3.143C11.5836 2.74474 11.8096 2.37878 12.1648 2.18503C14.1346 1.11942 17.1161 0.172219 19.1397 0H19.2043C20.4959 0 21.54 1.04408 21.54 2.33572Z" fill="#292D32"/>
<path d="M9.38596 2.18503C7.41618 1.11942 4.43464 0.172219 2.41107 0H2.33572C1.04408 0 0 1.04408 0 2.33572V15.1338C0 16.1778 0.850332 17.1358 1.89441 17.265L2.22808 17.308C3.99333 17.5448 6.47974 18.2768 8.48179 19.1163C9.18145 19.4069 9.95644 18.8795 9.95644 18.1153V3.143C9.95644 2.73398 9.74116 2.37878 9.38596 2.18503ZM3.23987 5.44643H5.6617C6.10301 5.44643 6.46898 5.81239 6.46898 6.2537C6.46898 6.70578 6.10301 7.06098 5.6617 7.06098H3.23987C2.79856 7.06098 2.43259 6.70578 2.43259 6.2537C2.43259 5.81239 2.79856 5.44643 3.23987 5.44643ZM6.46898 10.2901H3.23987C2.79856 10.2901 2.43259 9.9349 2.43259 9.48282C2.43259 9.04151 2.79856 8.67555 3.23987 8.67555H6.46898C6.91029 8.67555 7.27626 9.04151 7.27626 9.48282C7.27626 9.9349 6.91029 10.2901 6.46898 10.2901Z" fill="#292D32"/>
</svg>
