<svg width="22" height="24" viewBox="0 0 22 24" fill="none" xmlns="http://www.w3.org/2000/svg">
<path d="M17.7895 7.50096C19.8608 7.50096 21.54 5.82181 21.54 3.75047C21.54 1.67915 19.8608 0 17.7895 0C15.7182 0 14.0391 1.67915 14.0391 3.75047C14.0391 5.82181 15.7182 7.50096 17.7895 7.50096Z" fill="#292D32"/>
<path d="M3.75047 7.50096C5.8218 7.50096 7.50094 5.82181 7.50094 3.75047C7.50094 1.67915 5.8218 0 3.75047 0C1.67915 0 0 1.67915 0 3.75047C0 5.82181 1.67915 7.50096 3.75047 7.50096Z" fill="#292D32"/>
<path d="M17.7895 23.0867C19.8608 23.0867 21.54 21.4076 21.54 19.3362C21.54 17.2648 19.8608 15.5857 17.7895 15.5857C15.7182 15.5857 14.0391 17.2648 14.0391 19.3362C14.0391 21.4076 15.7182 23.0867 17.7895 23.0867Z" fill="#292D32"/>
<path d="M3.75047 23.0867C5.8218 23.0867 7.50094 21.4076 7.50094 19.3362C7.50094 17.2648 5.8218 15.5857 3.75047 15.5857C1.67915 15.5857 0 17.2648 0 19.3362C0 21.4076 1.67915 23.0867 3.75047 23.0867Z" fill="#292D32"/>
</svg>
