<svg width="22" height="22" viewBox="0 0 22 22" fill="none" xmlns="http://www.w3.org/2000/svg">
<path d="M10.77 0C4.83573 0 0 4.83573 0 10.77C0 16.7043 4.83573 21.54 10.77 21.54C16.7043 21.54 21.54 16.7043 21.54 10.77C21.54 4.83573 16.7043 0 10.77 0ZM15.078 11.5778H11.5778V15.078C11.5778 15.5196 11.2116 15.8858 10.77 15.8858C10.3284 15.8858 9.96225 15.5196 9.96225 15.078V11.5778H6.462C6.02043 11.5778 5.65425 11.2116 5.65425 10.77C5.65425 10.3284 6.02043 9.96225 6.462 9.96225H9.96225V6.462C9.96225 6.02043 10.3284 5.65425 10.77 5.65425C11.2116 5.65425 11.5778 6.02043 11.5778 6.462V9.96225H15.078C15.5196 9.96225 15.8858 10.3284 15.8858 10.77C15.8858 11.2116 15.5196 11.5778 15.078 11.5778Z" fill="#292D32"/>
</svg>
