<svg width="24" height="22" viewBox="0 0 24 22" fill="none" xmlns="http://www.w3.org/2000/svg">
<path d="M21.0936 7.76022C18.9842 7.76022 18.1218 6.26852 19.1707 4.43886C19.7767 3.37835 19.4154 2.0265 18.3549 1.4205L16.3388 0.266759C15.4181 -0.280974 14.2294 0.0453353 13.6817 0.965993L13.5535 1.18742C12.5046 3.01708 10.7799 3.01708 9.71935 1.18742L9.59116 0.965993C9.06673 0.0453353 7.87804 -0.280974 6.95738 0.266759L4.94125 1.4205C3.88075 2.0265 3.51948 3.39 4.12548 4.45051C5.18599 6.26852 4.3236 7.76022 2.21424 7.76022C1.00224 7.76022 0 8.7508 0 9.97446V12.0255C0 13.2375 0.990582 14.2398 2.21424 14.2398C4.3236 14.2398 5.18599 15.7315 4.12548 17.5611C3.51948 18.6216 3.88075 19.9735 4.94125 20.5795L6.95738 21.7332C7.87804 22.281 9.06673 21.9547 9.61447 21.034L9.74266 20.8126C10.7915 18.9829 12.5163 18.9829 13.5768 20.8126L13.705 21.034C14.2527 21.9547 15.4414 22.281 16.3621 21.7332L18.3782 20.5795C19.4387 19.9735 19.8 18.61 19.194 17.5611C18.1335 15.7315 18.9959 14.2398 21.1052 14.2398C22.3172 14.2398 23.3195 13.2492 23.3195 12.0255V9.97446C23.3078 8.76245 22.3172 7.76022 21.0936 7.76022ZM11.6539 14.7875C9.56785 14.7875 7.86638 13.086 7.86638 11C7.86638 8.91395 9.56785 7.21248 11.6539 7.21248C13.7399 7.21248 15.4414 8.91395 15.4414 11C15.4414 13.086 13.7399 14.7875 11.6539 14.7875Z" fill="#292D32"/>
</svg>
