<svg width="22" height="21" viewBox="0 0 22 21" fill="none" xmlns="http://www.w3.org/2000/svg">
<path d="M19.484 7.16805C17.5356 7.16805 16.739 5.79018 17.7078 4.10014C18.2676 3.12056 17.9339 1.87186 16.9543 1.3121L15.092 0.246404C14.2416 -0.259534 13.1436 0.0418759 12.6377 0.892281L12.5193 1.09681C11.5504 2.78685 9.95727 2.78685 8.97769 1.09681L8.85928 0.892281C8.37487 0.0418759 7.27688 -0.259534 6.42648 0.246404L4.5642 1.3121C3.58462 1.87186 3.25091 3.13132 3.81067 4.1109C4.79025 5.79018 3.99367 7.16805 2.04528 7.16805C0.925757 7.16805 0 8.08304 0 9.21333V11.1079C0 12.2274 0.914993 13.1532 2.04528 13.1532C3.99367 13.1532 4.79025 14.5311 3.81067 16.2211C3.25091 17.2007 3.58462 18.4494 4.5642 19.0091L6.42648 20.0748C7.27688 20.5808 8.37487 20.2794 8.88081 19.429L8.99922 19.2244C9.96804 17.5344 11.5612 17.5344 12.5408 19.2244L12.6592 19.429C13.1651 20.2794 14.2631 20.5808 15.1135 20.0748L16.9758 19.0091C17.9554 18.4494 18.2891 17.1899 17.7293 16.2211C16.7497 14.5311 17.5463 13.1532 19.4947 13.1532C20.6142 13.1532 21.54 12.2382 21.54 11.1079V9.21333C21.5292 8.09381 20.6142 7.16805 19.484 7.16805ZM10.7646 13.6591C8.83775 13.6591 7.26612 12.0875 7.26612 10.1606C7.26612 8.23375 8.83775 6.66212 10.7646 6.66212C12.6915 6.66212 14.2631 8.23375 14.2631 10.1606C14.2631 12.0875 12.6915 13.6591 10.7646 13.6591Z" fill="#292D32"/>
</svg>
